<?xml version="1.0" encoding="UTF-8" standalone="no"?>
<svg
   width="500"
   zoomAndPan="magnify"
   viewBox="0 0 120 120"
   height="500"
   preserveAspectRatio="xMidYMid"
   version="1.0"
   id="svg21"
   sodipodi:docname="favicon-dark.svg"
   inkscape:version="1.3 (0e150ed6c4, 2023-07-21)"
   xmlns:inkscape="http://www.inkscape.org/namespaces/inkscape"
   xmlns:sodipodi="http://sodipodi.sourceforge.net/DTD/sodipodi-0.dtd"
   xmlns="http://www.w3.org/2000/svg"
   xmlns:svg="http://www.w3.org/2000/svg">
  <sodipodi:namedview
     id="namedview21"
     pagecolor="#505050"
     bordercolor="#ffffff"
     borderopacity="1"
     inkscape:showpageshadow="0"
     inkscape:pageopacity="0"
     inkscape:pagecheckerboard="1"
     inkscape:deskcolor="#505050"
     inkscape:zoom="0.83509311"
     inkscape:cx="166.44851"
     inkscape:cy="405.94276"
     inkscape:window-width="1397"
     inkscape:window-height="1212"
     inkscape:window-x="2116"
     inkscape:window-y="143"
     inkscape:window-maximized="0"
     inkscape:current-layer="svg21" />
  <defs
     id="defs3">
    <g
       id="g1">
      <g
         id="id1" />
    </g>
    <clipPath
       id="id2">
      <path
         d="m 147,105 h 67 v 89.03906 h -67 z m 0,0"
         clip-rule="nonzero"
         id="path1" />
    </clipPath>
    <clipPath
       id="id3">
      <path
         d="m 173,142 h 73.55469 v 50 H 173 Z m 0,0"
         clip-rule="nonzero"
         id="path2" />
    </clipPath>
    <clipPath
       id="id4">
      <path
         d="M 128.80469,104.78906 H 185 V 192 h -56.19531 z m 0,0"
         clip-rule="nonzero"
         id="path3" />
    </clipPath>
  </defs>
  <g
     clip-path="url(#id2)"
     id="g4"
     transform="translate(-127.60421,-89.583217)">
    <path
       fill="#2cc0ff"
       d="m 197.80078,190.46094 c -1.21094,0 -2.19531,-0.98047 -2.19531,-2.19141 0,-1.21094 0.98437,-2.19141 2.19531,-2.19141 1.21484,0 2.19922,0.98047 2.19922,2.19141 0,1.21094 -0.98438,2.19141 -2.19922,2.19141 z m 10.01172,-61.56641 c -1.21484,0 -2.19922,-0.98047 -2.19922,-2.1914 0,-1.21094 0.98438,-2.19141 2.19922,-2.19141 1.21484,0 2.19922,0.98047 2.19922,2.19141 0,1.21093 -0.98438,2.1914 -2.19922,2.1914 z m -10.01172,53.61719 c -1.96484,0 -3.69922,0.98047 -4.74219,2.47656 l -36.47656,-0.0469 40.45703,-70.51172 5.63672,9.64453 c -0.40625,0.78906 -0.64062,1.67969 -0.64062,2.62891 0,3.17968 2.58984,5.75781 5.77734,5.75781 3.19141,0 5.77734,-2.57813 5.77734,-5.75781 0,-3.02344 -2.33984,-5.5 -5.30859,-5.73829 l -9.17578,-15.15625 c 0,0 -2.71485,-2.66796 -5.78516,2.64844 l -44.41797,76.82813 c 0,0 -3.83984,5.59375 2.36328,5.88671 h 41.55079 c 1,1.70704 2.85937,2.85547 4.98437,2.85547 3.19141,0 5.77734,-2.57812 5.77734,-5.75781 0,-3.17969 -2.58593,-5.75781 -5.77734,-5.75781 z m 0,0"
       fill-opacity="1"
       fill-rule="nonzero"
       id="path4" />
  </g>
  <g
     clip-path="url(#id3)"
     id="g5"
     transform="translate(-127.60421,-89.583217)">
    <path
       fill="#fffffb"
       d="m 194.57422,142.32422 c 5.05859,-0.1211 21.89844,-0.65625 24.64844,0.72265 1.55078,0.77735 3.4375,4.77344 4.39062,6.21875 5.98047,9.03907 21.85547,36.3125 21.85547,36.3125 0,0 3.24609,4.41407 -1.48047,5.59375 h -25.39453 c 0,0 -1.47656,0.375 -3.24609,-2.90234 l -10.33594,-17.99609 h -24.34375 l -0.004,0.0117 h -7.03515 c 3.79296,-6.47266 11.49218,-19.54297 16.72656,-27.96094 z m 0,0"
       fill-opacity="1"
       fill-rule="nonzero"
       id="path5" />
  </g>
  <g
     clip-path="url(#id4)"
     id="g6"
     transform="translate(-127.60421,-89.583217)">
    <path
       fill="#2cc0ff"
       d="m 134.625,187.71875 c 1.21484,0 2.19922,-0.98047 2.19922,-2.19141 0,-1.21093 -0.98438,-2.1914 -2.19922,-2.1914 -1.21484,0 -2.19922,0.98047 -2.19922,2.1914 0,1.21094 0.98438,2.19141 2.19922,2.19141 z m 40.96094,-72.37109 c 0.0156,0.0117 0.0352,0.0234 0.0508,0.0352 z m 1.6289,0.73047 c 0.0273,0.008 0.0508,0.0156 0.0781,0.0195 z m 0.22657,0.0547 c 0.0195,0.004 0.0352,0.004 0.0508,0.008 -0.0156,-0.004 -0.0312,-0.004 -0.0508,-0.008 z m 1.21484,0.125 -9.40234,16.39063 -29.37891,50.72265 -0.004,-0.004 c 0.25782,0.65234 0.39844,1.35937 0.39844,2.10547 0,3.17968 -2.58594,5.75781 -5.77734,5.75781 -2.125,0 -3.98438,-1.14844 -4.98438,-2.85547 h -0.0547 c -0.49609,-0.85547 -0.78125,-1.84375 -0.78125,-2.90234 0,-1.21875 0.37891,-2.35157 1.02344,-3.28125 h 0.0508 c 1.04297,-1.4961 2.78125,-2.47657 4.7461,-2.47657 0.10156,0 0.19922,0 0.29687,0.008 l 38.59766,-66.76563 0.0156,0.0352 c -0.36328,-0.75391 -0.5625,-1.59766 -0.5625,-2.49219 0,-1.21484 0.375,-2.34766 1.01953,-3.28125 h 0.0547 c 1.04297,-1.49609 2.77735,-2.47656 4.74219,-2.47656 3.19141,0 5.77734,2.57812 5.77734,5.75781 0,3.17969 -2.58593,5.75781 -5.77734,5.75781 z m -38.79688,67.08594 c -0.0117,-0.0352 -0.0234,-0.0664 -0.0391,-0.0977 0.0156,0.0312 0.0273,0.0625 0.0391,0.0977 z m -0.0508,-0.12891 c -0.0156,-0.0312 -0.0273,-0.0625 -0.043,-0.0937 0.0156,0.0312 0.0273,0.0625 0.043,0.0937 z m -0.0508,-0.11718 c -0.0195,-0.0391 -0.0352,-0.0781 -0.0547,-0.11329 0.0195,0.0352 0.0352,0.0742 0.0547,0.11329 z m -0.0664,-0.14063 c -0.0156,-0.0312 -0.0312,-0.0586 -0.0469,-0.0898 0.0156,0.0312 0.0312,0.0586 0.0469,0.0898 z m -0.0625,-0.12109 c -0.0156,-0.0312 -0.0352,-0.0664 -0.0508,-0.0977 0.0156,0.0312 0.0352,0.0664 0.0508,0.0977 z m -0.0586,-0.11328 c -0.0195,-0.0352 -0.0391,-0.0703 -0.0625,-0.10938 0.0234,0.0391 0.043,0.0742 0.0625,0.10938 z m -0.0781,-0.13672 c -0.0156,-0.0273 -0.0312,-0.0547 -0.0469,-0.082 0.0156,0.0273 0.0312,0.0547 0.0469,0.082 z m -0.0664,-0.11328 c -0.0234,-0.0312 -0.043,-0.0664 -0.0664,-0.10157 0.0234,0.0352 0.043,0.0664 0.0664,0.10157 z m -0.0664,-0.10547 c -0.0234,-0.0352 -0.0469,-0.0703 -0.0703,-0.10157 0.0234,0.0352 0.0469,0.0664 0.0703,0.10157 z m -0.0898,-0.13282 c -0.0156,-0.0273 -0.0352,-0.0508 -0.0547,-0.0781 0.0195,0.0273 0.0391,0.0508 0.0547,0.0781 z m -0.0742,-0.10546 c -0.0234,-0.0352 -0.0469,-0.0664 -0.0703,-0.10157 0.0234,0.0352 0.0469,0.0664 0.0703,0.10157 z m -0.082,-0.11329 c -0.0195,-0.0273 -0.043,-0.0586 -0.0664,-0.0859 0.0234,0.0273 0.0469,0.0586 0.0664,0.0859 z m -0.0898,-0.11328 c -0.0195,-0.0273 -0.0391,-0.0508 -0.0586,-0.0781 0.0195,0.0273 0.0391,0.0508 0.0586,0.0781 z m -0.0781,-0.10156 c -0.0273,-0.0312 -0.0547,-0.0625 -0.082,-0.0937 0.0273,0.0312 0.0547,0.0625 0.082,0.0937 z m -0.0977,-0.10937 c -0.0195,-0.0273 -0.043,-0.0508 -0.0664,-0.0781 0.0234,0.0273 0.0469,0.0508 0.0664,0.0781 z m -0.0937,-0.10547 c -0.0195,-0.0234 -0.043,-0.0469 -0.0664,-0.0742 0.0234,0.0273 0.0469,0.0508 0.0664,0.0742 z m -0.082,-0.0898 c -0.0312,-0.0312 -0.0586,-0.0586 -0.0898,-0.0898 0.0312,0.0312 0.0586,0.0586 0.0898,0.0898 z m -0.10937,-0.11328 c -0.0234,-0.0195 -0.0469,-0.043 -0.0703,-0.0664 0.0234,0.0234 0.0469,0.0469 0.0703,0.0664 z m -0.0977,-0.0898 c -0.0273,-0.0273 -0.0547,-0.0508 -0.082,-0.0742 0.0273,0.0234 0.0547,0.0469 0.082,0.0742 z m -0.0898,-0.0859 c -0.0312,-0.0273 -0.0625,-0.0547 -0.0937,-0.082 0.0312,0.0273 0.0625,0.0547 0.0937,0.082 z m -0.12109,-0.10156 c -0.0234,-0.0234 -0.0469,-0.043 -0.0703,-0.0625 0.0234,0.0195 0.0469,0.0391 0.0703,0.0625 z m -0.19532,-0.16406 c -0.0312,-0.0234 -0.0664,-0.0508 -0.0977,-0.0742 0.0312,0.0234 0.0664,0.0508 0.0977,0.0742 z m -0.1289,-0.0977 c -0.0234,-0.0195 -0.0508,-0.0352 -0.0742,-0.0547 0.0234,0.0195 0.0508,0.0352 0.0742,0.0547 z m -0.10157,-0.0742 c -0.0352,-0.0234 -0.0664,-0.0469 -0.10156,-0.0703 0.0312,0.0234 0.0664,0.0469 0.10156,0.0703 z m -0.12109,-0.082 c -0.0273,-0.0195 -0.0586,-0.0391 -0.0859,-0.0547 0.0273,0.0156 0.0586,0.0352 0.0859,0.0547 z m -0.11719,-0.0781 c -0.0273,-0.0156 -0.0586,-0.0352 -0.0859,-0.0508 0.0273,0.0156 0.0547,0.0352 0.0859,0.0508 z m -0.10937,-0.0664 c -0.0352,-0.0195 -0.0703,-0.043 -0.10547,-0.0625 0.0352,0.0195 0.0703,0.043 0.10547,0.0625 z m -0.13281,-0.0781 c -0.0273,-0.0156 -0.0547,-0.0312 -0.0859,-0.0469 0.0312,0.0156 0.0586,0.0312 0.0859,0.0469 z m -0.11719,-0.0625 c -0.0312,-0.0195 -0.0625,-0.0352 -0.0937,-0.0508 0.0312,0.0156 0.0625,0.0312 0.0937,0.0508 z m -0.11328,-0.0625 c -0.0352,-0.0156 -0.0742,-0.0352 -0.11328,-0.0547 0.0391,0.0195 0.0781,0.0391 0.11328,0.0547 z m -0.14063,-0.0664 c -0.0273,-0.0156 -0.0586,-0.0273 -0.0859,-0.043 0.0273,0.0156 0.0586,0.0273 0.0859,0.043 z m -0.12109,-0.0586 c -0.0352,-0.0156 -0.0703,-0.0273 -0.10547,-0.043 0.0352,0.0156 0.0703,0.0273 0.10547,0.043 z m -0.11719,-0.0508 c -0.0391,-0.0156 -0.0781,-0.0312 -0.11719,-0.0469 0.0391,0.0156 0.0781,0.0312 0.11719,0.0469 z m -0.14844,-0.0586 c -0.0312,-0.0117 -0.0625,-0.0234 -0.0898,-0.0352 0.0273,0.0117 0.0586,0.0234 0.0898,0.0352 z m -0.125,-0.0469 c -0.0391,-0.0156 -0.0781,-0.0273 -0.11718,-0.043 0.0391,0.0156 0.0781,0.0273 0.11718,0.043 z m -0.125,-0.043 c -0.0391,-0.0156 -0.0781,-0.0273 -0.11328,-0.0391 0.0352,0.0117 0.0742,0.0234 0.11328,0.0391 z m -0.15234,-0.0508 c -0.0312,-0.008 -0.0586,-0.0156 -0.0898,-0.0273 0.0312,0.0117 0.0586,0.0195 0.0898,0.0273 z m -0.125,-0.0352 c -0.0391,-0.0117 -0.082,-0.0234 -0.12109,-0.0352 0.0391,0.0117 0.082,0.0234 0.12109,0.0352 z m -0.14063,-0.0391 c -0.0352,-0.008 -0.0703,-0.0156 -0.10937,-0.0234 0.0391,0.008 0.0742,0.0156 0.10937,0.0234 z m -0.14453,-0.0352 c -0.0352,-0.004 -0.0664,-0.0117 -0.10156,-0.0195 0.0352,0.008 0.0664,0.0156 0.10156,0.0195 z m -0.1289,-0.0273 c -0.043,-0.008 -0.082,-0.0156 -0.125,-0.0234 0.043,0.008 0.082,0.0156 0.125,0.0234 z m -0.15235,-0.0273 c -0.0352,-0.008 -0.0703,-0.0117 -0.10156,-0.0156 0.0312,0.004 0.0664,0.008 0.10156,0.0156 z m -0.14062,-0.0234 c -0.0391,-0.004 -0.0742,-0.0117 -0.11328,-0.0156 0.0391,0.004 0.0742,0.0117 0.11328,0.0156 z m -0.13281,-0.0156 c -0.043,-0.008 -0.0859,-0.0117 -0.12891,-0.0156 0.043,0.004 0.0859,0.008 0.12891,0.0156 z m -0.16016,-0.0195 c -0.0352,-0.004 -0.0703,-0.008 -0.10156,-0.008 0.0312,0 0.0664,0.004 0.10156,0.008 z m -0.14063,-0.0117 c -0.043,-0.004 -0.0859,-0.008 -0.1289,-0.008 0.043,0 0.0859,0.004 0.1289,0.008 z m 38.52344,-66.64453 c 0.0117,0.0234 0.0234,0.0469 0.0352,0.0703 -0.0117,-0.0234 -0.0234,-0.0469 -0.0352,-0.0703 z m 0.15235,0.28515 c 0.008,0.0117 0.0156,0.0234 0.0195,0.0352 z m 5.05859,-0.67968 c 1.21484,0 2.19922,-0.98047 2.19922,-2.1875 0,-1.21094 -0.98438,-2.19141 -2.19922,-2.19141 -1.21094,0 -2.19531,0.98047 -2.19531,2.19141 0,1.20703 0.98437,2.1875 2.19531,2.1875 z m 0,3.5664 c -0.0312,0 -0.0664,0 -0.0977,0 -0.0352,0 -0.0664,0 -0.0977,0 h -0.004 c -0.0312,-0.004 -0.0625,-0.004 -0.0977,-0.004 -0.0312,-0.004 -0.0664,-0.004 -0.0977,-0.008 -0.0312,-0.004 -0.0664,-0.004 -0.0977,-0.008 -0.0312,-0.004 -0.0664,-0.004 -0.0977,-0.008 -0.0312,-0.004 -0.0625,-0.008 -0.0977,-0.0117 -0.0312,-0.004 -0.0625,-0.008 -0.0937,-0.0117 h -0.004 c -0.0312,-0.004 -0.0625,-0.008 -0.0937,-0.0156 -0.0312,-0.004 -0.0625,-0.008 -0.0937,-0.0117 h -0.004 c -0.0312,-0.008 -0.0625,-0.0117 -0.0937,-0.0195 -0.0312,-0.004 -0.0625,-0.0117 -0.0937,-0.0156 z m -39.4375,64.80078 h 0.004 c 0.0312,0.0273 0.0625,0.0547 0.0977,0.0781 l 0.0234,0.0234 z m 0,0"
       fill-opacity="1"
       fill-rule="nonzero"
       id="path6" />
  </g>
</svg>
